# AST/ASF file generated using VICON BodyLanguage
# -----------------------------------------------
:version 1.10
:name VICON
:units
  mass 1.0
  length 0.45
  angle deg
:documentation
   .ast/.asf automatically generated from VICON data using
   VICON BodyBuilder and BodyLanguage model FoxedUp or BRILLIANT.MOD
:root
   order TX TY TZ RX RY RZ
   axis XYZ
   position 0 0 0  
   orientation 0 0 0 
:bonedata
  begin
     id 1 
     name lhipjoint
     direction 0.440178 -0.822639 0.359871 
     length 2.53113 
     axis 0 0 0  XYZ
  end
  begin
     id 2 
     name lfemur
     direction 0.34202 -0.939693 0  
     length 7.88132  
     axis 0 0 20  XYZ
    dof rx ry rz
    limits (-160.0 20.0)
           (-70.0 70.0)
           (-60.0 70.0)
  end
  begin
     id 3 
     name ltibia
     direction 0.34202 -0.939693 0   
     length 8.43783   
     axis 0 0 20   XYZ
    dof rx
    limits (-10.0 170.0)
  end
  begin
     id 4 
     name lfoot
     direction 0.0886351 -0.243523 0.965837   
     length 2.63414   
     axis -90 7.62852e-016 20   XYZ
    dof rx rz
    limits (-45.0 90.0)
           (-70.0 20.0)
  end
  begin
     id 5 
     name ltoes
     direction 1.53703e-011 -4.21717e-011 1   
     length 1.31427   
     axis -90 7.62852e-016 20   XYZ
    dof rx
    limits (-90.0 20.0)
  end
  begin
     id 6 
     name rhipjoint
     direction -0.399779 -0.839773 0.367367   
     length 2.47948  
     axis 0 0 0  XYZ 
  end
  begin
     id 7 
     name rfemur
     direction -0.34202 -0.939693 0   
     length 7.74806   
     axis 0 0 -20   XYZ
    dof rx ry rz
    limits (-160.0 20.0)
           (-70.0 70.0)
           (-70.0 60.0)
  end
  begin
     id 8 
     name rtibia
     direction -0.34202 -0.939693 0   
     length 8.74432   
     axis 0 0 -20   XYZ
    dof rx
    limits (-10.0 170.0)
 end
 begin
     id 9 
     name rfoot
     direction -0.108514 -0.298139 0.948334   
     length 2.66102  
     axis -90 -7.62852e-016 -20   XYZ
    dof rx rz
    limits (-45.0 90.0)
           (-20.0 70.0)
  end
  begin
     id 10 
     name rtoes
     direction -1.53392e-011 -4.22077e-011 1   
     length 1.31983   
     axis -90 -7.62852e-016 -20   XYZ
    dof rx
    limits (-90.0 20.0)
  end
  begin
     id 11 
     name lowerback
     direction 0.0113257 0.999866 0.0118602   
     length 2.58694   
     axis 0 0 0   XYZ
    dof rx ry rz
    limits (-20.0 45.0)
           (-30.0 30.0)
           (-30.0 30.0)
  end
  begin
     id 12 
     name upperback
     direction -0.0164747 0.995193 -0.0965375   
     length 2.52368   
     axis 0 0 0   XYZ
    dof rx ry rz
    limits (-20.0 45.0)
           (-30.0 30.0)
           (-30.0 30.0)
  end
  begin
     id 13 
     name thorax
     direction -0.0194301 0.99433 -0.104552   
     length 2.56099   
     axis 0 0 0   XYZ
    dof rx ry rz
    limits (-20.0 45.0)
           (-30.0 30.0)
           (-30.0 30.0)
  end
  begin
     id 14 
     name lowerneck
     direction 0.0148543 0.995587 -0.092657   
     length 1.71582   
     axis 0 0 0   XYZ
    dof rx ry rz
    limits (-20.0 45.0)
           (-30.0 30.0)
           (-30.0 30.0)
  end
  begin
     id 15 
     name upperneck
     direction -0.0135467 0.993656 -0.111639   
     length 1.68937   
     axis 0 0 0   XYZ
    dof rx ry rz
    limits (-20.0 45.0)
           (-30.0 30.0)
           (-30.0 30.0)
  end
  begin
     id 16
     name head
     direction -0.00615349 0.999547 -0.029448  
     length 1.7462  
     axis 0 0 0   XYZ
    dof rx ry rz
    limits (-20.0 45.0)
           (-30.0 30.0)
           (-30.0 30.0)
  end
  begin
     id 17 
     name lclavicle
     direction 0.988267 0.149885 0.0293713  
     length 4.47222  
     axis 0 0 0   XYZ
    dof ry rz
    limits (-20.0 10.0)
           (0.0 20.0)
  end
  begin
     id 18 
     name lhumerus
     direction 1 -4.48986e-011 -1.14833e-027   
     length 5.37148   
     axis 180 -30 -90   XYZ
    dof rx ry rz
    limits (-60.0 90.0)
           (-90.0 90.0)
           (-90.0 90.0)
  end
  begin
     id 19
     name lradius
     direction 0.999998 0.00170963 -0.000987055   
     length 3.94212   
     axis 180 -30 -90   XYZ
    dof rx
    limits (-10.0 170.0)
  end
  begin
     id 20
     name lwrist
     direction 0.999998 7.53149e-005 -0.00194706   
     length 1.97106   
     axis 4.65056e-015 90 90   XYZ
    dof ry
    limits (-180.0 0.0)
 end
  begin
     id 21 
     name lhand
     direction 1 -4.48973e-011 -1.31746e-026   
     length 1.17917   
     axis 8.4065e-015 90 90   XYZ
    dof rx rz
    limits (-90.0 90.0)
           (-45.0 45.0)
  end
  begin
     id 22 
     name lfingers
     direction 1 -4.49107e-011 -2.63492e-026   
     length 0.950679   
     axis 1.6813e-014 90 90   XYZ
    dof rx
    limits (0.0 90.0)
  end
  begin
     id 23
     name lthumb
     direction 0.707107 -6.35048e-011 0.707107   
     length 1.36499   
     axis -90 45 2.85299e-015   XYZ
    dof rx rz
    limits (-45.0 45.0)
           (-45.0 45.0)
  end
  begin
     id 24 
     name rclavicle
     direction -0.996699 0.0642895 -0.0495725   
     length 4.62611  
     axis 0 0 0   XYZ 
    dof ry rz
    limits (-10.0 20.0)
           (-20.0 0.0)
  end
  begin
     id 25 
     name rhumerus
     direction -1 -4.48919e-011 -2.41059e-027  
     length 5.4981   
     axis 180 30 90   XYZ
    dof rx ry rz
    limits (-90.0 60.0)
           (-90.0 90.0)
           (-90.0 90.0)
  end
  begin
     id 26 
     name rradius
     direction -0.999999 0.00118101 -0.000681858   
     length 3.48381   
     axis 180 30 90   XYZ
    dof rx
    limits (-10.0 170.0)
  end
  begin
     id 27 
     name rwrist
     direction -0.999999 0.000321823 -0.00132288   
     length 1.7419   
     axis 4.65056e-015 -90 -90   XYZ
    dof ry
    limits (-180.0 0.0)
  end
  begin
     id 28
     name rhand
     direction -1 -4.49022e-011 -1.31746e-026   
     length 1.34932   
     axis 8.4065e-015 -90 -90   XYZ
    dof rx rz
    limits (-90.0 90.0)
           (-45.0 45.0)
  end
  begin
     id 29
     name rfingers
     direction -1 -4.49178e-011 -2.63492e-026   
     length 1.08785   
     axis 1.6813e-014 -90 -90   XYZ
    dof rx
    limits (0.0 90.0)
  end
  begin
     id 30
     name rthumb
     direction -0.707107 -6.34713e-011 0.707107   
     length 1.56195   
     axis -90 -45 -2.85299e-015   XYZ
    dof rx rz
    limits (-45.0 45.0)
           (-45.0 45.0)
  end
:hierarchy
  begin
    root lhipjoint rhipjoint lowerback
    lhipjoint lfemur
    lfemur ltibia
    ltibia lfoot
    lfoot ltoes
    rhipjoint rfemur
    rfemur rtibia
    rtibia rfoot
    rfoot rtoes
    lowerback upperback
    upperback thorax
    thorax lowerneck lclavicle rclavicle
    lowerneck upperneck
    upperneck head
    lclavicle lhumerus
    lhumerus lradius
    lradius lwrist
    lwrist lhand lthumb
    lhand lfingers
    rclavicle rhumerus
    rhumerus rradius
    rradius rwrist
    rwrist rhand rthumb
    rhand rfingers
  end

#!OML:ASF X:\für Bonn\!DataBase\2005_08_10_Bjorn_Final\c3d\bjorn.ASF
:FULLY-SPECIFIED
:DEGREES
16
root 1.78397 18.6803 7.1744 -182.334 -14.7244 -176.821
lowerback -1.7433 -1.12814 -1.00636
upperback 8.90907 -1.89316 -4.16704
thorax 10.3363 -1.11966 -4.16374
lowerneck -0.574596 2.5516 0.765622
upperneck 27.2588 -0.23212 3.29517
head 8.56618 -0.783076 0.809276
rclavicle -2.94201e-014 -2.38542e-014
rhumerus -36.0135 -10.4897 -89.4414
rradius 28.272
rwrist 5.12904
rhand -3.60734 8.25837
rfingers 7.12502
rthumb 22.131 -20.495
lclavicle -2.94201e-014 -2.38542e-014
lhumerus -22.6663 8.99302 82.4633
lradius 27.9317
lwrist 0.797899
lhand -26.0288 6.54481
lfingers 7.12502
lthumb 0.517921 36.5239
rfemur -25.0746 -5.57627 16.9734
rtibia 50.8536
rfoot -15.0091 10.6124
rtoes -15.3064
lfemur -10.812 14.2732 -13.8375
ltibia 39.9821
lfoot -23.0347 -15.8917
ltoes -13.6659
17
root 1.77863 18.6723 7.16615 -182.442 -14.7029 -176.822
lowerback -1.61322 -1.18928 -1.14939
upperback 8.91296 -1.97534 -4.28526
thorax 10.2584 -1.17312 -4.21387
lowerneck -0.643561 2.66581 0.792158
upperneck 27.2895 -0.0834777 3.31355
head 8.58727 -0.710358 0.821579
rclavicle -3.57812e-014 -3.18055e-014
rhumerus -36.3429 -10.296 -89.4945
rradius 28.6281
rwrist 4.77404
rhand -3.29319 8.14646
rfingers 7.12502
rthumb 22.4326 -20.5708
lclavicle -3.57812e-014 -3.18055e-014
lhumerus -22.6524 8.63884 82.3111
lradius 27.6245
lwrist -2.72574
lhand -25.846 6.51214
lfingers 7.12502
lthumb 0.694436 36.4908
rfemur -25.0653 -5.51359 17.1683
rtibia 51.3309
rfoot -15.0675 10.5462
rtoes -15.5622
lfemur -10.7094 13.9955 -13.8599
ltibia 40.0746
lfoot -23.0494 -15.6008
ltoes -13.1542
18
root 1.77373 18.664 7.15654 -182.536 -14.6584 -176.823
lowerback -1.51808 -1.23762 -1.27873
upperback 8.92152 -2.04042 -4.4071
thorax 10.2076 -1.21656 -4.27587
lowerneck -0.685578 2.78259 0.87672
upperneck 27.2919 0.0774239 3.29448
head 8.59418 -0.628881 0.812178
rclavicle 2.0276e-014 4.13472e-014
rhumerus -36.6641 -10.0958 -89.5645
rradius 29.0154
rwrist 4.37061
rhand -2.99795 7.98875
rfingers 7.12502
rthumb 22.7159 -20.6941
lclavicle 2.0276e-014 4.13472e-014
lhumerus -22.6417 8.0625 82.186
lradius 27.4089
lwrist -5.89499
lhand -25.3426 6.22681
lfingers 7.12502
lthumb 1.1807 36.2033
rfemur -25.0728 -5.4761 17.3622
rtibia 51.8006
rfoot -15.1024 10.4429
rtoes -15.5996
lfemur -10.6265 13.695 -13.8986
ltibia 40.1763
lfoot -23.066 -15.241
ltoes -12.6168
19
root 1.76959 18.6551 7.14599 -182.636 -14.5622 -176.84
lowerback -1.41525 -1.24831 -1.41886
upperback 8.93573 -2.05659 -4.51838
thorax 10.1623 -1.23807 -4.31556
lowerneck -0.759041 2.88083 0.923662
upperneck 27.308 0.20858 3.30714
head 8.61169 -0.560975 0.818187
rclavicle -6.24184e-014 -2.54444e-014
rhumerus -36.961 -10.0008 -89.5674
rradius 29.3863
rwrist 4.04688
rhand -2.88967 8.03225
rfingers 7.12502
rthumb 22.8199 -20.6378
lclavicle -6.24184e-014 -2.54444e-014
lhumerus -22.6253 7.28982 82.1418
lradius 27.2849
lwrist -8.63645
lhand -24.631 5.76505
lfingers 7.12502
lthumb 1.86799 35.7366
rfemur -25.0759 -5.43622 17.5373
rtibia 52.2607
rfoot -15.1068 10.3251
rtoes -15.5977
lfemur -10.5157 13.4117 -13.9465
ltibia 40.2896
lfoot -23.0783 -14.9202
ltoes -11.9332
20
root 1.76473 18.6444 7.13452 -182.742 -14.4142 -176.859
lowerback -1.32281 -1.23616 -1.55413
upperback 8.95535 -2.04327 -4.5879
thorax 10.1321 -1.24583 -4.31077
lowerneck -0.830196 2.96198 0.880036
upperneck 27.2919 0.337708 3.30834
head 8.61623 -0.501084 0.836182
rclavicle 7.15625e-015 1.145e-013
rhumerus -37.2461 -9.88794 -89.4759
rradius 29.7594
rwrist 3.70426
rhand -2.82474 8.0653
rfingers 7.12502
rthumb 22.8822 -20.5971
lclavicle 7.15625e-015 1.145e-013
lhumerus -22.6427 6.30102 82.2428
lradius 27.2965
lwrist -11.0917
lhand -23.8251 4.99819
lfingers 7.12502
lthumb 2.64624 34.9615
rfemur -25.0732 -5.37519 17.6958
rtibia 52.7135
rfoot -15.0481 10.2645
rtoes -15.2209
lfemur -10.3896 13.1101 -14.0055
ltibia 40.4163
lfoot -23.0732 -14.5866
ltoes -10.947
21
root 1.76063 18.6302 7.12237 -182.858 -14.2684 -176.894
lowerback -1.21289 -1.23017 -1.71071
upperback 8.97611 -2.03916 -4.65727
thorax 10.0929 -1.26048 -4.29393
lowerneck -0.904425 3.04522 0.872663
upperneck 27.2882 0.467773 3.28928
head 8.62626 -0.439848 0.841119
rclavicle -4.77083e-015 4.29375e-014
rhumerus -37.5225 -9.79905 -89.3805
rradius 30.1129
rwrist 3.38257
rhand -2.90939 8.24031
rfingers 7.12502
rthumb 22.8009 -20.4321
lclavicle -4.77083e-015 4.29375e-014
lhumerus -22.6716 5.23309 82.3555
lradius 27.3386
lwrist -13.5608
lhand -22.9853 3.75907
lfingers 7.12502
lthumb 3.45726 33.7108
rfemur -25.0484 -5.3108 17.8306
rtibia 53.1561
rfoot -14.963 10.1764
rtoes -14.7304
lfemur -10.2503 12.8705 -14.0647
ltibia 40.5593
lfoot -23.0466 -14.3509
ltoes -9.73731
22
root 1.75577 18.6169 7.10916 -182.967 -14.1008 -176.929
lowerback -1.115 -1.22393 -1.87113
upperback 8.99701 -2.03447 -4.7141
thorax 10.0615 -1.27528 -4.26198
lowerneck -1.02085 3.12715 0.912979
upperneck 27.3012 0.610597 3.19743
head 8.65071 -0.37294 0.814589
rclavicle 4.37326e-015 5.40694e-014
rhumerus -37.7717 -9.70064 -89.2768
rradius 30.4515
rwrist 3.07809
rhand -3.09171 8.30906
rfingers 7.12502
rthumb 22.6259 -20.3848
lclavicle 4.37326e-015 5.40694e-014
lhumerus -22.7192 4.0692 82.4759
lradius 27.4657
lwrist -15.8878
lhand -22.0692 2.45293
lfingers 7.12502
lthumb 4.34199 32.3884
rfemur -25.0433 -5.27417 17.9609
rtibia 53.5889
rfoot -14.8932 10.1098
rtoes -14.219
lfemur -10.1176 12.6565 -14.1312
ltibia 40.7087
lfoot -23.0266 -14.0709
ltoes -8.70083
23
root 1.75091 18.6031 7.09677 -183.086 -13.9601 -176.976
lowerback -0.989115 -1.23492 -2.05354
upperback 9.03121 -2.05592 -4.75579
thorax 10.0281 -1.30618 -4.20323
lowerneck -1.20131 3.20608 0.911265
upperneck 27.3276 0.756111 3.10872
head 8.69099 -0.306272 0.797367
rclavicle 1.55052e-014 -2.38542e-014
rhumerus -37.9829 -9.57766 -89.1561
rradius 30.753
rwrist 2.69519
rhand -3.31727 8.43116
rfingers 7.12502
rthumb 22.4094 -20.2889
lclavicle 1.55052e-014 -2.38542e-014
lhumerus -22.7589 2.76345 82.6148
lradius 27.666
lwrist -17.9
lhand -21.024 1.35411
lfingers 7.12502
lthumb 5.35114 31.2666
rfemur -25.0275 -5.2522 18.0669
rtibia 54.0123
rfoot -14.8341 10.0409
rtoes -13.6816
lfemur -9.97981 12.443 -14.2028
ltibia 40.858
lfoot -22.9681 -13.8771
ltoes -7.45338
24
root 1.74476 18.5893 7.08305 -183.248 -13.8041 -177.053
lowerback -0.826203 -1.23973 -2.26121
upperback 9.0843 -2.07392 -4.79039
thorax 9.99512 -1.3396 -4.1219
lowerneck -1.40437 3.28968 0.904378
upperneck 27.3576 0.913298 3.01016
head 8.7367 -0.234628 0.779074
rclavicle -1.59028e-014 -4.45278e-014
rhumerus -38.1759 -9.46758 -88.9918
rradius 31.0246
rwrist 2.2696
rhand -3.54281 8.54217
rfingers 7.12502
rthumb 22.1929 -20.2038
lclavicle -1.59028e-014 -4.45278e-014
lhumerus -22.8397 1.2814 82.7768
lradius 27.979
lwrist -19.4202
lhand -19.7989 0.339816
lfingers 7.12502
lthumb 6.53391 30.219
rfemur -24.9511 -5.24343 18.1186
rtibia 54.4215
rfoot -14.7894 10.0318
rtoes -13.044
lfemur -9.76985 12.2476 -14.3028
ltibia 40.9902
lfoot -22.9139 -13.6605
ltoes -6.28204
25
root 1.73912 18.5756 7.06921 -183.418 -13.6588 -177.129
lowerback -0.636206 -1.24744 -2.45599
upperback 9.12755 -2.09831 -4.82259
thorax 9.93435 -1.37515 -4.04343
lowerneck -1.55709 3.37282 0.878163
upperneck 27.3759 1.06557 2.9262
head 8.76899 -0.168005 0.768363
rclavicle -4.77083e-014 -8.11041e-014
rhumerus -38.3763 -9.38261 -88.8072
rradius 31.2685
rwrist 1.8771
rhand -3.78891 8.65657
rfingers 7.12502
rthumb 21.9567 -20.1173
lclavicle -4.77083e-014 -8.11041e-014
lhumerus -22.936 -0.233036 82.9375
lradius 28.3379
lwrist -20.4795
lhand -18.4101 -0.813808
lfingers 7.12502
lthumb 7.87452 29.0195
rfemur -24.8801 -5.24706 18.1655
rtibia 54.8152
rfoot -14.7661 10.0022
rtoes -12.4852
lfemur -9.54063 12.0559 -14.3954
ltibia 41.1028
lfoot -22.8473 -13.4855
ltoes -4.99405
26
root 1.73308 18.5629 7.05407 -183.604 -13.5003 -177.206
lowerback -0.449611 -1.2491 -2.64467
upperback 9.19417 -2.11833 -4.8433
thorax 9.90253 -1.40947 -3.95767
lowerneck -1.6988 3.44906 0.841736
upperneck 27.3394 1.22878 2.81619
head 8.77994 -0.0963877 0.751743
rclavicle -1.43125e-014 -1.08139e-013
rhumerus -38.5079 -9.33261 -88.5863
rradius 31.5037
rwrist 1.56636
rhand -4.01162 8.68182
rfingers 7.12502
rthumb 21.7428 -20.117
lclavicle -1.43125e-014 -1.08139e-013
lhumerus -22.9956 -1.63712 83.0941
lradius 28.7108
lwrist -21.1406
lhand -16.8834 -2.20256
lfingers 7.12502
lthumb 9.34784 27.5702
rfemur -24.8022 -5.28558 18.1977
rtibia 55.1819
rfoot -14.7836 9.99006
rtoes -12.2684
lfemur -9.27564 11.9238 -14.4795
ltibia 41.1935
lfoot -22.7686 -13.3153
ltoes -3.83311
27
root 1.72618 18.5512 7.03828 -183.799 -13.3368 -177.268
lowerback -0.239555 -1.23269 -2.77215
upperback 9.24624 -2.11781 -4.87046
thorax 9.83898 -1.42809 -3.90879
lowerneck -1.76849 3.50806 0.819408
upperneck 27.2804 1.36134 2.71614
head 8.77059 -0.0388803 0.732989
rclavicle -6.79844e-014 -4.13472e-014
rhumerus -38.6175 -9.4477 -88.3182
rradius 31.6937
rwrist 1.53739
rhand -4.21606 8.60288
rfingers 7.12502
rthumb 21.5465 -20.2186
lclavicle -6.79844e-014 -4.13472e-014
lhumerus -23.0978 -3.05784 83.2435
lradius 29.1228
lwrist -21.3898
lhand -15.3468 -3.72988
lfingers 7.12502
lthumb 10.8303 25.9709
rfemur -24.7259 -5.33747 18.2343
rtibia 55.5199
rfoot -14.8214 9.96031
rtoes -12.3012
lfemur -8.99197 11.8225 -14.544
ltibia 41.2585
lfoot -22.6939 -13.15
ltoes -2.74064
